<?xml version="1.0" standalone="no"?>
<!DOCTYPE svg PUBLIC "-//W3C//DTD SVG 20010904//EN"
 "http://www.w3.org/TR/2001/REC-SVG-20010904/DTD/svg10.dtd">
<svg version="1.0" xmlns="http://www.w3.org/2000/svg"
 width="64.000000pt" height="64.000000pt" viewBox="0 0 64.000000 64.000000"
 preserveAspectRatio="xMidYMid meet">
<metadata>
Created by potrace 1.16, written by Peter Selinger 2001-2019
</metadata>
<g transform="translate(0.000000,64.000000) scale(0.100000,-0.100000)"
fill="#000000" stroke="none">
<path d="M94 546 c-30 -30 -34 -40 -34 -86 0 -48 3 -55 51 -106 53 -55 75 -66
85 -39 4 10 -11 34 -40 65 -52 55 -60 96 -26 130 38 38 75 27 152 -47 84 -81
94 -102 72 -149 -17 -36 -13 -64 10 -64 17 0 41 36 50 77 11 48 -13 90 -102
176 -79 76 -80 77 -132 77 -46 0 -56 -4 -86 -34z"/>
<path d="M247 367 c-24 -37 -29 -82 -14 -118 8 -19 51 -69 95 -111 79 -77 80
-78 132 -78 46 0 56 4 86 34 30 30 34 40 34 86 0 48 -3 55 -51 106 -53 55 -75
66 -85 39 -4 -10 11 -34 40 -65 52 -55 60 -96 26 -130 -38 -38 -75 -27 -152
47 -84 81 -94 102 -72 149 27 56 -6 91 -39 41z"/>
</g>
</svg>
