<?xml version="1.0" encoding="iso-8859-1"?>
<!-- Uploaded to: SVG Repo, www.svgrepo.com, Generator: SVG Repo Mixer Tools -->
<svg fill="#000000" height="800px" width="800px" version="1.1" id="Layer_1" xmlns="http://www.w3.org/2000/svg" xmlns:xlink="http://www.w3.org/1999/xlink" 
	 viewBox="0 0 512 512" xml:space="preserve">
<g>
	<g>
		<path d="M299.192,394.063c-5.599-14.701-22.952-24.577-43.18-24.577c-20.263,0-37.623,9.898-43.201,24.632
			c-1.175,3.105-0.422,6.611,1.926,8.958l35.278,35.278c1.583,1.584,3.731,2.473,5.97,2.473c2.239,0,4.387-0.889,5.97-2.471
			l35.317-35.318C299.625,400.685,300.377,397.171,299.192,394.063z M255.986,420.445l-24.69-24.69
			c4.493-5.129,13.266-9.385,24.717-9.385c11.424,0,20.19,4.242,24.69,9.357L255.986,420.445z"/>
	</g>
</g>
<g>
	<g>
		<path d="M374.484,314.747c-28.698-33.177-71.88-52.204-118.472-52.204c-16.156,0-32.119,2.334-47.444,6.935
			c-4.466,1.341-7,6.048-5.658,10.514c1.342,4.466,6.047,6.997,10.514,5.658c13.749-4.129,28.078-6.222,42.588-6.222
			c38.885,0,75.022,14.706,100.391,40.597l-27.861,27.861c-17.84-18.341-44.259-29.059-72.53-29.059
			c-28.289,0-54.718,10.728-72.557,29.086l-27.858-27.858c8.623-8.788,18.61-16.364,29.778-22.583
			c4.074-2.268,5.537-7.409,3.269-11.483c-2.267-4.073-7.409-5.537-11.483-3.269c-15.272,8.504-28.612,19.289-39.648,32.057
			c-2.893,3.348-2.712,8.362,0.418,11.491l39.985,39.985c1.588,1.588,3.738,2.473,5.97,2.473c0.18,0,0.36-0.006,0.539-0.017
			c2.422-0.155,4.661-1.346,6.144-3.268c14.363-18.615,38.827-29.728,65.443-29.728c26.6,0,51.056,11.103,65.422,29.701
			c1.484,1.92,3.722,3.109,6.143,3.265c2.417,0.151,4.793-0.74,6.509-2.456l39.984-39.983
			C377.198,323.111,377.379,318.095,374.484,314.747z"/>
	</g>
</g>
<g>
	<g>
		<path d="M442.068,246.802c-17.144-18.638-37.147-34.487-59.452-47.104c-4.059-2.296-9.211-0.866-11.506,3.191
			c-2.296,4.059-0.867,9.209,3.191,11.506c18.391,10.403,35.095,23.159,49.753,37.982l-27.857,27.857
			c-15.105-15.285-33.199-28.172-52.786-37.546c-26.72-12.787-56.941-19.546-87.397-19.546c-30.465,0-60.694,6.762-87.421,19.556
			c-19.592,9.379-37.686,22.272-52.79,37.562L87.95,252.408c18.252-18.429,40.103-33.984,63.63-45.247
			c32.004-15.321,68.116-23.418,104.433-23.418c30.228,0,60.938,5.761,88.808,16.664c4.344,1.699,9.24-0.446,10.938-4.788
			c1.699-4.343-0.446-9.24-4.788-10.938c-29.811-11.66-62.646-17.823-94.959-17.823c-38.825,0-77.458,8.67-111.724,25.073
			c-28.298,13.547-53.315,32.018-74.356,54.901c-3.062,3.332-2.955,8.486,0.245,11.685l39.84,39.84
			c1.585,1.586,3.734,2.473,5.97,2.473c0.078,0,0.156-0.001,0.239-0.005c2.32-0.065,4.511-1.082,6.057-2.812
			c14.75-16.496,33.286-30.357,53.601-40.084c24.464-11.71,52.173-17.9,80.13-17.9c27.949,0,55.65,6.187,80.108,17.891
			c20.312,9.72,38.847,23.576,53.599,40.067c1.547,1.73,3.737,2.747,6.057,2.811c2.32,0.068,4.564-0.828,6.205-2.47l39.839-39.84
			C445.024,255.287,445.132,250.133,442.068,246.802z"/>
	</g>
</g>
<g>
	<g>
		<path d="M509.699,179.02c-28.782-30.514-62.658-55.215-100.687-73.413c-47.071-22.526-99.977-34.434-152.999-34.434
			c-48.11,0-96.665,9.934-140.415,28.729c-4.284,1.842-6.266,6.806-4.425,11.09c1.842,4.284,6.808,6.266,11.09,4.425
			c41.66-17.898,87.911-27.358,133.749-27.358c50.514,0,100.899,11.335,145.71,32.779c33.667,16.111,63.905,37.577,89.993,63.876
			l-27.871,27.871c-22.92-23.143-49.502-42.03-79.129-56.207c-39.535-18.919-84.039-28.919-128.703-28.919
			c-44.675,0-89.191,10.005-128.735,28.935c-29.625,14.182-56.204,33.071-79.122,56.219l-27.87-27.87
			c21.678-21.842,46.431-40.485,73.68-55.482c4.085-2.249,5.574-7.382,3.325-11.468c-2.248-4.084-7.382-5.575-11.468-3.325
			c-31.209,17.177-59.31,38.905-83.521,64.582c-3.134,3.322-3.056,8.534,0.172,11.762l39.834,39.833
			c1.584,1.585,3.733,2.473,5.97,2.473c0.049,0,0.1-0.001,0.15-0.003c2.291-0.041,4.467-1.011,6.028-2.688
			c22.801-24.487,49.755-44.272,80.113-58.804c37.282-17.846,79.278-27.279,121.445-27.279c42.155,0,84.14,9.429,121.413,27.266
			c30.359,14.528,57.315,34.309,80.119,58.792c1.561,1.676,3.737,2.646,6.028,2.687c2.298,0.015,4.501-0.852,6.12-2.472
			l39.834-39.833C512.756,187.554,512.833,182.342,509.699,179.02z"/>
	</g>
</g>
</svg>