<svg xmlns="http://www.w3.org/2000/svg" height="40" viewBox="0 -960 960 960" width="40"><path d="M480.066-72.029q-76.421 0-143.236-28.685-66.816-28.684-116.644-78.476t-78.474-116.525q-28.647-66.734-28.647-143.169h75.753q0 121.453 84.866 206.198 84.865 84.744 206.287 84.744 121.323 0 206.147-84.827t84.824-206.195q0-121.453-83.147-206.198-83.148-84.744-204.701-84.744h-17.413l67.739 67.739-48.311 49.485-156.435-156.594L485.109-925.71l48.311 49.057-70.993 70.834h17.334q76.509 0 143.327 28.685t116.648 78.474q49.829 49.79 78.514 116.517 28.685 66.726 28.685 143.13t-28.65 143.202q-28.649 66.798-78.483 116.637-49.833 49.839-116.574 78.492-66.741 28.653-143.162 28.653Z"/></svg>